<?xml version="1.0" encoding="UTF-8"?>
<!DOCTYPE svg PUBLIC "-//W3C//DTD SVG 1.1//EN" "http://www.w3.org/Graphics/SVG/1.1/DTD/svg11.dtd">
<!-- Creator: CorelDRAW (Оценочная версия) -->
<svg xmlns="http://www.w3.org/2000/svg" xml:space="preserve" width="254mm" height="254mm" version="1.1" style="shape-rendering:geometricPrecision; text-rendering:geometricPrecision; image-rendering:optimizeQuality; fill-rule:evenodd; clip-rule:evenodd"
viewBox="0 0 25400 25400"
 xmlns:xlink="http://www.w3.org/1999/xlink"
 xmlns:xodm="http://www.corel.com/coreldraw/odm/2003">
 <defs>
  <style type="text/css">
   <![CDATA[
    .fil0 {fill:#00BFFF}
   ]]>
  </style>
 </defs>
 <g id="Слой_x0020_1">
  <metadata id="CorelCorpID_0Corel-Layer"/>
  <path class="fil0" d="M11023.56 17177l202.89 0 0 -672.05 471.93 -655.41 -84.11 0 -444.97 617.96 0 662.31 -88.59 0 0 -690.88 488.2 -677.98 302.44 0 -556.31 772.57 0 732.07 -380.07 0 0 -732.07 -554.99 -771.15 107.75 -1.57 535.83 744.15 0 672.05zm4121.45 -1327.46l-63.66 0 0 1327.46 207.8 0 0 -1416.05 88.59 0 0 1504.64 -384.98 0 0 -1504.64 240.84 0 0 1349.92 -88.59 0 0 -1261.33zm-1513.88 291.47l0 978.84 -88.59 0 0 -1067.43 585.68 0c23.51,0 38.27,0.19 61.21,7.43 168.71,53.26 234.11,284.58 234.11,441.27 0,101.71 -22.23,209.77 -68.48,300.76 -36.48,71.76 -95.88,146.33 -177.09,167.94 -13.69,3.64 -23.54,4.3 -37.55,4.3l-277.34 0 0 -88.59 273.14 0c10.94,0 17.17,0.59 27.71,-2.92 55.77,-18.53 96.54,-82.21 119.57,-132.86 34.55,-75.99 51.03,-165.42 51.03,-248.64 0,-113.42 -42.76,-312.02 -165.8,-355.72 -14.66,-5.21 -22.83,-4.38 -38.08,-4.38l-499.52 0zm-145.74 1035.99l658.54 0c7.63,0 13.73,-0.57 21.24,-1.95 136.62,-25.09 251.09,-111.41 330.64,-223.14 90.37,-126.92 134.96,-283.53 134.96,-438.64 0,-155.82 -45,-313.17 -136.2,-440.38 -80.3,-112.01 -195.76,-198.08 -333.28,-222.1 -7.03,-1.23 -13.27,-1.25 -20.37,-1.25l-744.12 0 0 -88.59 744.58 0c8.65,0 16.6,0.12 25.2,1.44 351.89,54.2 553.2,419.22 553.2,750.88 0,175.98 -51.77,352.66 -155.82,495.5 -94.18,129.28 -229.17,226.42 -388.67,253.94 -13.73,2.37 -25.94,2.88 -39.81,2.88l-738.68 0 0 -1358.91 745.49 0c10.77,0 19.86,0.68 30.48,2.71 120.71,23.07 219.24,103.3 286.33,203.7 77.44,115.9 113.91,257.63 113.91,396.24 0,138.44 -36.33,280.39 -111.99,397.12 -65.43,100.95 -162.31,184.3 -282.33,209.49 -15.24,3.2 -27.74,3.91 -43.21,3.91l-447.2 0 0 -948.4 88.59 0 0 859.81 358.08 0c10.86,0 19.19,0.11 29.89,-2.3 97.29,-21.81 174.53,-94.01 226.03,-176.58 63.18,-101.3 93.13,-224.26 93.13,-343.04 0,-193.02 -90.63,-435.85 -289.61,-502.57 -29.95,-10.04 -43.74,-11.5 -75.05,-11.5l-633.95 0 0 1181.73zm-512.67 -202.88l-575.18 0 0 -241.41 88.59 0 0 152.82 575.18 0 0 380.06 -955.25 0 0 -1504.64 88.59 0 0 1416.05 778.07 0 0 -202.88zm1.7 -1124.58l-634.03 0 0 609.06 501.5 0 0 88.59 -590.09 0 0 -786.24 811.21 0 0 379.94 -21.64 0.13 -522.86 0 0 -88.59 455.91 0 0 -202.89zm-634.03 833.1l0 348.62 575.18 0 0 88.59 -663.77 0 0 -525.8 632.33 0 0 -181.55 -486.59 0 0 -505.81 518.03 0 0 88.59 -429.44 0 0 328.63 486.59 0 0 358.73 -632.33 0zm-1260.45 -1092.85l79.69 111.44 144.03 -200.03 110.5 0 -253.26 354.09 -253.23 -354.09 278.61 0 48.42 67.25 -62.48 64.82 -31.31 -43.48 -60.97 0zm-276.55 259.75l-59.46 0 300.98 420.86 366.82 -509.45 109.01 0 -474.57 663.51 -474.51 -663.51 277.1 0 271.22 376.67 -62.49 64.82 -254.1 -352.9zm4765.83 572.24l583.21 0 0 182.97 -583.21 0 0 -182.97zm-5874.08 0l583.21 0 0 182.97 -583.21 0 0 -182.97zm6024.21 -11624.51l308.58 0 -3553.17 9524.79 -312.97 0 3557.56 -9524.79zm-487.64 0l308.58 0 -3553.17 9524.79 -312.97 0 3557.56 -9524.79zm-487.64 0l308.58 0 -3553.17 9524.79 -312.97 0 3557.56 -9524.79zm-487.64 0l308.58 0 -3553.17 9524.79 -312.97 0 3557.56 -9524.79zm-4438.28 0l3950.64 0 308.58 0 -3553.17 9524.79 -312.97 0 2755.72 -7377.99 -3148.8 0 0 -288.96 3256.73 0 65.55 -175.5 -3322.28 0 0 -288.96 3430.21 0 65.55 -175.5 -3495.76 0 0 -288.96 3603.68 0 65.56 -175.5 -3669.24 0 0 -288.96 3777.16 0 65.55 -175.5 -3842.71 0 0 -288.96z"/>
 </g>
</svg>
