<?xml version="1.0" encoding="UTF-8"?>
<!DOCTYPE svg PUBLIC "-//W3C//DTD SVG 1.1//EN" "http://www.w3.org/Graphics/SVG/1.1/DTD/svg11.dtd">
<!-- Creator: CorelDRAW (Оценочная версия) -->
<svg xmlns="http://www.w3.org/2000/svg" xml:space="preserve" width="254mm" height="254mm" version="1.1" style="shape-rendering:geometricPrecision; text-rendering:geometricPrecision; image-rendering:optimizeQuality; fill-rule:evenodd; clip-rule:evenodd"
viewBox="0 0 25400 25400"
 xmlns:xlink="http://www.w3.org/1999/xlink"
 xmlns:xodm="http://www.corel.com/coreldraw/odm/2003">
 <defs>
  <style type="text/css">
   <![CDATA[
    .fil85 {fill:#E6C97A}
    .fil86 {fill:#E6C879}
    .fil84 {fill:#E4C778}
    .fil87 {fill:#E3C778}
    .fil83 {fill:#E3C678}
    .fil82 {fill:#E3C678}
    .fil81 {fill:#E1C476}
    .fil80 {fill:#E1C476}
    .fil88 {fill:#E0C375}
    .fil79 {fill:#DFC275}
    .fil89 {fill:#DFC174}
    .fil78 {fill:#DEC073}
    .fil90 {fill:#DEC073}
    .fil77 {fill:#DDBF73}
    .fil91 {fill:#DDBF72}
    .fil76 {fill:#DCBD72}
    .fil92 {fill:#DCBD71}
    .fil93 {fill:#DBBC70}
    .fil75 {fill:#DABB70}
    .fil94 {fill:#DABB6F}
    .fil74 {fill:#D9BA6F}
    .fil95 {fill:#D9B96E}
    .fil73 {fill:#D7B76D}
    .fil96 {fill:#D8B86D}
    .fil72 {fill:#D7B66C}
    .fil71 {fill:#D5B46B}
    .fil97 {fill:#D5B46A}
    .fil70 {fill:#D3B269}
    .fil98 {fill:#D4B369}
    .fil99 {fill:#D3B168}
    .fil69 {fill:#D2B068}
    .fil100 {fill:#D1AF66}
    .fil68 {fill:#D0AE66}
    .fil101 {fill:#D0AE65}
    .fil67 {fill:#CFAC65}
    .fil102 {fill:#CEAC63}
    .fil66 {fill:#CDAA64}
    .fil103 {fill:#CDAA62}
    .fil65 {fill:#CCA862}
    .fil104 {fill:#CBA861}
    .fil64 {fill:#CBA661}
    .fil105 {fill:#CAA660}
    .fil63 {fill:#C9A55F}
    .fil106 {fill:#C8A55E}
    .fil62 {fill:#C8A35E}
    .fil107 {fill:#C8A35D}
    .fil61 {fill:#C6A15C}
    .fil108 {fill:#C6A15C}
    .fil60 {fill:#C49F5B}
    .fil109 {fill:#C5A05A}
    .fil59 {fill:#C39D5A}
    .fil110 {fill:#C39E59}
    .fil58 {fill:#C19B58}
    .fil111 {fill:#C29C57}
    .fil57 {fill:#C09957}
    .fil112 {fill:#C19A56}
    .fil56 {fill:#BF9755}
    .fil113 {fill:#BF9854}
    .fil55 {fill:#BD9554}
    .fil114 {fill:#BE9653}
    .fil54 {fill:#BC9353}
    .fil115 {fill:#BC9452}
    .fil53 {fill:#BA9251}
    .fil116 {fill:#BA9250}
    .fil52 {fill:#B99050}
    .fil51 {fill:#B78E4F}
    .fil117 {fill:#B8904F}
    .fil50 {fill:#B68C4E}
    .fil49 {fill:#B58B4D}
    .fil118 {fill:#B78E4E}
    .fil48 {fill:#B4894C}
    .fil119 {fill:#B58C4C}
    .fil47 {fill:#B3874A}
    .fil120 {fill:#B48B4B}
    .fil46 {fill:#B2864A}
    .fil121 {fill:#B3894A}
    .fil45 {fill:#B08549}
    .fil122 {fill:#B18749}
    .fil44 {fill:#AF8348}
    .fil123 {fill:#B08648}
    .fil43 {fill:#AE8247}
    .fil124 {fill:#AF8447}
    .fil42 {fill:#AC8046}
    .fil125 {fill:#AE8246}
    .fil41 {fill:#AB7F46}
    .fil126 {fill:#AC8145}
    .fil40 {fill:#AA7D45}
    .fil39 {fill:#AA7D44}
    .fil127 {fill:#AB7F44}
    .fil38 {fill:#A97B43}
    .fil128 {fill:#AA7E43}
    .fil37 {fill:#A87A43}
    .fil129 {fill:#A97D43}
    .fil36 {fill:#A67942}
    .fil130 {fill:#A87C42}
    .fil35 {fill:#A57741}
    .fil34 {fill:#A57741}
    .fil131 {fill:#A77A41}
    .fil33 {fill:#A47640}
    .fil132 {fill:#A67940}
    .fil32 {fill:#A37440}
    .fil31 {fill:#A2733F}
    .fil133 {fill:#A47840}
    .fil30 {fill:#A1723F}
    .fil134 {fill:#A3763F}
    .fil29 {fill:#A0723E}
    .fil28 {fill:#A0713E}
    .fil135 {fill:#A2753E}
    .fil27 {fill:#9F703D}
    .fil136 {fill:#A1743E}
    .fil26 {fill:#9E6F3D}
    .fil25 {fill:#9D6E3C}
    .fil137 {fill:#A0733D}
    .fil138 {fill:#9F723C}
    .fil24 {fill:#9D6D3C}
    .fil23 {fill:#9C6D3B}
    .fil139 {fill:#9E713C}
    .fil22 {fill:#9B6C3B}
    .fil21 {fill:#9B6B3B}
    .fil140 {fill:#9E703C}
    .fil20 {fill:#9A6B3B}
    .fil19 {fill:#9A6A3A}
    .fil141 {fill:#9D6F3B}
    .fil142 {fill:#9C6E3B}
    .fil18 {fill:#996A3A}
    .fil17 {fill:#99693A}
    .fil16 {fill:#986839}
    .fil143 {fill:#9B6E3B}
    .fil144 {fill:#9B6D3A}
    .fil15 {fill:#976739}
    .fil14 {fill:#976739}
    .fil145 {fill:#9A6C3A}
    .fil146 {fill:#9A6B39}
    .fil13 {fill:#976739}
    .fil12 {fill:#966639}
    .fil11 {fill:#966638}
    .fil147 {fill:#996B39}
    .fil148 {fill:#996A39}
    .fil10 {fill:#966638}
    .fil9 {fill:#956538}
    .fil8 {fill:#956538}
    .fil149 {fill:#986939}
    .fil150 {fill:#986939}
    .fil151 {fill:#986939}
    .fil7 {fill:#946438}
    .fil6 {fill:#946438}
    .fil5 {fill:#946437}
    .fil4 {fill:#946337}
    .fil152 {fill:#976939}
    .fil153 {fill:#976838}
    .fil3 {fill:#936337}
    .fil2 {fill:#936337}
    .fil1 {fill:#936237}
    .fil0 {fill:#936125}
   ]]>
  </style>
    <clipPath id="id0">
     <path d="M11023.56 17177l202.89 0 0 -672.05 471.93 -655.41 -84.11 0 -444.97 617.96 0 662.31 -88.59 0 0 -690.88 488.2 -677.98 302.44 0 -556.31 772.57 0 732.07 -380.07 0 0 -732.07 -554.99 -771.15 107.75 -1.57 535.83 744.15 0 672.05zm4121.45 -1327.46l-63.66 0 0 1327.46 207.8 0 0 -1416.05 88.59 0 0 1504.64 -384.98 0 0 -1504.64 240.84 0 0 1349.92 -88.59 0 0 -1261.33zm-1513.88 291.47l0 978.84 -88.59 0 0 -1067.43 585.68 0c23.51,0 38.27,0.19 61.21,7.43 168.71,53.26 234.11,284.58 234.11,441.27 0,101.71 -22.23,209.77 -68.48,300.76 -36.48,71.76 -95.88,146.33 -177.09,167.94 -13.69,3.64 -23.54,4.3 -37.55,4.3l-277.34 0 0 -88.59 273.14 0c10.94,0 17.17,0.59 27.71,-2.92 55.77,-18.53 96.54,-82.21 119.57,-132.86 34.55,-75.99 51.03,-165.42 51.03,-248.64 0,-113.42 -42.76,-312.02 -165.8,-355.72 -14.66,-5.21 -22.83,-4.38 -38.08,-4.38l-499.52 0zm-145.74 1035.99l658.54 0c7.63,0 13.73,-0.57 21.24,-1.95 136.62,-25.09 251.09,-111.41 330.64,-223.14 90.37,-126.92 134.96,-283.53 134.96,-438.64 0,-155.82 -45,-313.17 -136.2,-440.38 -80.3,-112.01 -195.76,-198.08 -333.28,-222.1 -7.03,-1.23 -13.27,-1.25 -20.37,-1.25l-744.12 0 0 -88.59 744.58 0c8.65,0 16.6,0.12 25.2,1.44 351.89,54.2 553.2,419.22 553.2,750.88 0,175.98 -51.77,352.66 -155.82,495.5 -94.18,129.28 -229.17,226.42 -388.67,253.94 -13.73,2.37 -25.94,2.88 -39.81,2.88l-738.68 0 0 -1358.91 745.49 0c10.77,0 19.86,0.68 30.48,2.71 120.71,23.07 219.24,103.3 286.33,203.7 77.44,115.9 113.91,257.63 113.91,396.24 0,138.44 -36.33,280.39 -111.99,397.12 -65.43,100.95 -162.31,184.3 -282.33,209.49 -15.24,3.2 -27.74,3.91 -43.21,3.91l-447.2 0 0 -948.4 88.59 0 0 859.81 358.08 0c10.86,0 19.19,0.11 29.89,-2.3 97.29,-21.81 174.53,-94.01 226.03,-176.58 63.18,-101.3 93.13,-224.26 93.13,-343.04 0,-193.02 -90.63,-435.85 -289.61,-502.57 -29.95,-10.04 -43.74,-11.5 -75.05,-11.5l-633.95 0 0 1181.73zm-512.67 -202.88l-575.18 0 0 -241.41 88.59 0 0 152.82 575.18 0 0 380.06 -955.25 0 0 -1504.64 88.59 0 0 1416.05 778.07 0 0 -202.88zm1.7 -1124.58l-634.03 0 0 609.06 501.5 0 0 88.59 -590.09 0 0 -786.24 811.21 0 0 379.94 -21.64 0.13 -522.86 0 0 -88.59 455.91 0 0 -202.89zm-634.03 833.1l0 348.62 575.18 0 0 88.59 -663.77 0 0 -525.8 632.33 0 0 -181.55 -486.59 0 0 -505.81 518.03 0 0 88.59 -429.44 0 0 328.63 486.59 0 0 358.73 -632.33 0zm-1260.45 -1092.85l79.69 111.44 144.03 -200.03 110.5 0 -253.26 354.09 -253.23 -354.09 278.61 0 48.42 67.25 -62.48 64.82 -31.31 -43.48 -60.97 0zm-276.55 259.75l-59.46 0 300.98 420.86 366.82 -509.45 109.01 0 -474.57 663.51 -474.51 -663.51 277.1 0 271.22 376.67 -62.49 64.82 -254.1 -352.9zm4765.83 572.24l583.21 0 0 182.97 -583.21 0 0 -182.97zm-5874.08 0l583.21 0 0 182.97 -583.21 0 0 -182.97zm6024.21 -11624.51l308.58 0 -3553.17 9524.79 -312.97 0 3557.56 -9524.79zm-487.64 0l308.58 0 -3553.17 9524.79 -312.97 0 3557.56 -9524.79zm-487.64 0l308.58 0 -3553.17 9524.79 -312.97 0 3557.56 -9524.79zm-487.64 0l308.58 0 -3553.17 9524.79 -312.97 0 3557.56 -9524.79zm-4438.28 0l3950.64 0 308.58 0 -3553.17 9524.79 -312.97 0 2755.72 -7377.99 -3148.8 0 0 -288.96 3256.73 0 65.55 -175.5 -3322.28 0 0 -288.96 3430.21 0 65.55 -175.5 -3495.76 0 0 -288.96 3603.68 0 65.56 -175.5 -3669.24 0 0 -288.96 3777.16 0 65.55 -175.5 -3842.71 0 0 -288.96z"/>
    </clipPath>
 </defs>
 <g id="Слой_x0020_1">
  <metadata id="CorelCorpID_0Corel-Layer"/>
  <g>
   <g style="clip-path:url(#id0)">
    <polygon class="fil0" points="9695.14,4797.27 10409.26,4797.27 10409.26,17265.59 9695.14,17265.59 "/>
    <polygon id="_1" class="fil1" points="10399.5,4797.27 10428.79,4797.27 10428.79,17265.59 10399.5,17265.59 "/>
    <polygon id="_2" class="fil1" points="10419.02,4797.27 10448.31,4797.27 10448.31,17265.59 10419.02,17265.59 "/>
    <polygon id="_3" class="fil1" points="10438.55,4797.27 10467.83,4797.27 10467.83,17265.59 10438.55,17265.59 "/>
    <polygon id="_4" class="fil1" points="10458.07,4797.27 10487.35,4797.27 10487.35,17265.59 10458.07,17265.59 "/>
    <polygon id="_5" class="fil1" points="10477.59,4797.27 10506.88,4797.27 10506.88,17265.59 10477.59,17265.59 "/>
    <polygon id="_6" class="fil2" points="10497.11,4797.27 10526.4,4797.27 10526.4,17265.59 10497.11,17265.59 "/>
    <polygon id="_7" class="fil3" points="10516.64,4797.27 10545.92,4797.27 10545.92,17265.59 10516.64,17265.59 "/>
    <polygon id="_8" class="fil4" points="10536.16,4797.27 10565.44,4797.27 10565.44,17265.59 10536.16,17265.59 "/>
    <polygon id="_9" class="fil4" points="10555.68,4797.27 10584.97,4797.27 10584.97,17265.59 10555.68,17265.59 "/>
    <polygon id="_10" class="fil5" points="10575.2,4797.27 10604.49,4797.27 10604.49,17265.59 10575.2,17265.59 "/>
    <polygon id="_11" class="fil6" points="10594.73,4797.27 10624.01,4797.27 10624.01,17265.59 10594.73,17265.59 "/>
    <polygon id="_12" class="fil6" points="10614.25,4797.27 10643.53,4797.27 10643.53,17265.59 10614.25,17265.59 "/>
    <polygon id="_13" class="fil7" points="10633.77,4797.27 10663.06,4797.27 10663.06,17265.59 10633.77,17265.59 "/>
    <polygon id="_14" class="fil8" points="10653.29,4797.27 10682.58,4797.27 10682.58,17265.59 10653.29,17265.59 "/>
    <polygon id="_15" class="fil9" points="10672.82,4797.27 10702.1,4797.27 10702.1,17265.59 10672.82,17265.59 "/>
    <polygon id="_16" class="fil9" points="10692.34,4797.27 10721.62,4797.27 10721.62,17265.59 10692.34,17265.59 "/>
    <polygon id="_17" class="fil10" points="10711.86,4797.27 10741.15,4797.27 10741.15,17265.59 10711.86,17265.59 "/>
    <polygon id="_18" class="fil11" points="10731.38,4797.27 10760.67,4797.27 10760.67,17265.59 10731.38,17265.59 "/>
    <polygon id="_19" class="fil12" points="10750.91,4797.27 10780.19,4797.27 10780.19,17265.59 10750.91,17265.59 "/>
    <polygon id="_20" class="fil13" points="10770.43,4797.27 10799.71,4797.27 10799.71,17265.59 10770.43,17265.59 "/>
    <polygon id="_21" class="fil14" points="10789.95,4797.27 10819.24,4797.27 10819.24,17265.59 10789.95,17265.59 "/>
    <polygon id="_22" class="fil15" points="10809.47,4797.27 10838.76,4797.27 10838.76,17265.59 10809.47,17265.59 "/>
    <polygon id="_23" class="fil16" points="10829,4797.27 10858.28,4797.27 10858.28,17265.59 10829,17265.59 "/>
    <polygon id="_24" class="fil17" points="10848.52,4797.27 10877.8,4797.27 10877.8,17265.59 10848.52,17265.59 "/>
    <polygon id="_25" class="fil18" points="10868.04,4797.27 10897.33,4797.27 10897.33,17265.59 10868.04,17265.59 "/>
    <polygon id="_26" class="fil19" points="10887.56,4797.27 10916.85,4797.27 10916.85,17265.59 10887.56,17265.59 "/>
    <polygon id="_27" class="fil20" points="10907.09,4797.27 10936.37,4797.27 10936.37,17265.59 10907.09,17265.59 "/>
    <polygon id="_28" class="fil21" points="10926.61,4797.27 10955.89,4797.27 10955.89,17265.59 10926.61,17265.59 "/>
    <polygon id="_29" class="fil22" points="10946.13,4797.27 10975.42,4797.27 10975.42,17265.59 10946.13,17265.59 "/>
    <polygon id="_30" class="fil23" points="10965.65,4797.27 10994.94,4797.27 10994.94,17265.59 10965.65,17265.59 "/>
    <polygon id="_31" class="fil24" points="10985.18,4797.27 11014.46,4797.27 11014.46,17265.59 10985.18,17265.59 "/>
    <polygon id="_32" class="fil25" points="11004.7,4797.27 11033.98,4797.27 11033.98,17265.59 11004.7,17265.59 "/>
    <polygon id="_33" class="fil26" points="11024.22,4797.27 11053.51,4797.27 11053.51,17265.59 11024.22,17265.59 "/>
    <polygon id="_34" class="fil27" points="11043.74,4797.27 11073.03,4797.27 11073.03,17265.59 11043.74,17265.59 "/>
    <polygon id="_35" class="fil28" points="11063.27,4797.27 11092.55,4797.27 11092.55,17265.59 11063.27,17265.59 "/>
    <polygon id="_36" class="fil29" points="11082.79,4797.27 11112.07,4797.27 11112.07,17265.59 11082.79,17265.59 "/>
    <polygon id="_37" class="fil30" points="11102.31,4797.27 11131.6,4797.27 11131.6,17265.59 11102.31,17265.59 "/>
    <polygon id="_38" class="fil31" points="11121.83,4797.27 11151.12,4797.27 11151.12,17265.59 11121.83,17265.59 "/>
    <polygon id="_39" class="fil32" points="11141.36,4797.27 11170.64,4797.27 11170.64,17265.59 11141.36,17265.59 "/>
    <polygon id="_40" class="fil33" points="11160.88,4797.27 11190.16,4797.27 11190.16,17265.59 11160.88,17265.59 "/>
    <polygon id="_41" class="fil34" points="11180.4,4797.27 11209.69,4797.27 11209.69,17265.59 11180.4,17265.59 "/>
    <polygon id="_42" class="fil35" points="11199.92,4797.27 11229.21,4797.27 11229.21,17265.59 11199.92,17265.59 "/>
    <polygon id="_43" class="fil36" points="11219.45,4797.27 11248.73,4797.27 11248.73,17265.59 11219.45,17265.59 "/>
    <polygon id="_44" class="fil37" points="11238.97,4797.27 11268.25,4797.27 11268.25,17265.59 11238.97,17265.59 "/>
    <polygon id="_45" class="fil38" points="11258.49,4797.27 11287.78,4797.27 11287.78,17265.59 11258.49,17265.59 "/>
    <polygon id="_46" class="fil39" points="11278.01,4797.27 11307.3,4797.27 11307.3,17265.59 11278.01,17265.59 "/>
    <polygon id="_47" class="fil40" points="11297.54,4797.27 11326.82,4797.27 11326.82,17265.59 11297.54,17265.59 "/>
    <polygon id="_48" class="fil41" points="11317.06,4797.27 11346.34,4797.27 11346.34,17265.59 11317.06,17265.59 "/>
    <polygon id="_49" class="fil42" points="11336.58,4797.27 11365.87,4797.27 11365.87,17265.59 11336.58,17265.59 "/>
    <polygon id="_50" class="fil43" points="11356.1,4797.27 11385.39,4797.27 11385.39,17265.59 11356.1,17265.59 "/>
    <polygon id="_51" class="fil44" points="11375.63,4797.27 11404.91,4797.27 11404.91,17265.59 11375.63,17265.59 "/>
    <polygon id="_52" class="fil45" points="11395.15,4797.27 11424.43,4797.27 11424.43,17265.59 11395.15,17265.59 "/>
    <polygon id="_53" class="fil46" points="11414.67,4797.27 11443.96,4797.27 11443.96,17265.59 11414.67,17265.59 "/>
    <polygon id="_54" class="fil47" points="11434.19,4797.27 11463.48,4797.27 11463.48,17265.59 11434.19,17265.59 "/>
    <polygon id="_55" class="fil48" points="11453.72,4797.27 11483,4797.27 11483,17265.59 11453.72,17265.59 "/>
    <polygon id="_56" class="fil49" points="11473.24,4797.27 11502.52,4797.27 11502.52,17265.59 11473.24,17265.59 "/>
    <polygon id="_57" class="fil50" points="11492.76,4797.27 11522.05,4797.27 11522.05,17265.59 11492.76,17265.59 "/>
    <polygon id="_58" class="fil51" points="11512.28,4797.27 11541.57,4797.27 11541.57,17265.59 11512.28,17265.59 "/>
    <polygon id="_59" class="fil52" points="11531.81,4797.27 11561.09,4797.27 11561.09,17265.59 11531.81,17265.59 "/>
    <polygon id="_60" class="fil53" points="11551.33,4797.27 11580.61,4797.27 11580.61,17265.59 11551.33,17265.59 "/>
    <polygon id="_61" class="fil54" points="11570.85,4797.27 11600.14,4797.27 11600.14,17265.59 11570.85,17265.59 "/>
    <polygon id="_62" class="fil55" points="11590.37,4797.27 11619.66,4797.27 11619.66,17265.59 11590.37,17265.59 "/>
    <polygon id="_63" class="fil56" points="11609.9,4797.27 11639.18,4797.27 11639.18,17265.59 11609.9,17265.59 "/>
    <polygon id="_64" class="fil57" points="11629.42,4797.27 11658.7,4797.27 11658.7,17265.59 11629.42,17265.59 "/>
    <polygon id="_65" class="fil58" points="11648.94,4797.27 11678.23,4797.27 11678.23,17265.59 11648.94,17265.59 "/>
    <polygon id="_66" class="fil59" points="11668.46,4797.27 11697.75,4797.27 11697.75,17265.59 11668.46,17265.59 "/>
    <polygon id="_67" class="fil60" points="11687.99,4797.27 11717.27,4797.27 11717.27,17265.59 11687.99,17265.59 "/>
    <polygon id="_68" class="fil61" points="11707.51,4797.27 11736.79,4797.27 11736.79,17265.59 11707.51,17265.59 "/>
    <polygon id="_69" class="fil62" points="11727.03,4797.27 11756.32,4797.27 11756.32,17265.59 11727.03,17265.59 "/>
    <polygon id="_70" class="fil63" points="11746.55,4797.27 11775.84,4797.27 11775.84,17265.59 11746.55,17265.59 "/>
    <polygon id="_71" class="fil64" points="11766.08,4797.27 11795.36,4797.27 11795.36,17265.59 11766.08,17265.59 "/>
    <polygon id="_72" class="fil65" points="11785.6,4797.27 11814.88,4797.27 11814.88,17265.59 11785.6,17265.59 "/>
    <polygon id="_73" class="fil66" points="11805.12,4797.27 11834.41,4797.27 11834.41,17265.59 11805.12,17265.59 "/>
    <polygon id="_74" class="fil67" points="11824.64,4797.27 11853.93,4797.27 11853.93,17265.59 11824.64,17265.59 "/>
    <polygon id="_75" class="fil68" points="11844.17,4797.27 11873.45,4797.27 11873.45,17265.59 11844.17,17265.59 "/>
    <polygon id="_76" class="fil69" points="11863.69,4797.27 11892.97,4797.27 11892.97,17265.59 11863.69,17265.59 "/>
    <polygon id="_77" class="fil70" points="11883.21,4797.27 11912.5,4797.27 11912.5,17265.59 11883.21,17265.59 "/>
    <polygon id="_78" class="fil71" points="11902.73,4797.27 11932.02,4797.27 11932.02,17265.59 11902.73,17265.59 "/>
    <polygon id="_79" class="fil72" points="11922.26,4797.27 11951.54,4797.27 11951.54,17265.59 11922.26,17265.59 "/>
    <polygon id="_80" class="fil73" points="11941.78,4797.27 11971.06,4797.27 11971.06,17265.59 11941.78,17265.59 "/>
    <polygon id="_81" class="fil74" points="11961.3,4797.27 11990.59,4797.27 11990.59,17265.59 11961.3,17265.59 "/>
    <polygon id="_82" class="fil75" points="11980.82,4797.27 12010.11,4797.27 12010.11,17265.59 11980.82,17265.59 "/>
    <polygon id="_83" class="fil76" points="12000.35,4797.27 12029.63,4797.27 12029.63,17265.59 12000.35,17265.59 "/>
    <polygon id="_84" class="fil77" points="12019.87,4797.27 12049.15,4797.27 12049.15,17265.59 12019.87,17265.59 "/>
    <polygon id="_85" class="fil78" points="12039.39,4797.27 12068.68,4797.27 12068.68,17265.59 12039.39,17265.59 "/>
    <polygon id="_86" class="fil79" points="12058.91,4797.27 12088.2,4797.27 12088.2,17265.59 12058.91,17265.59 "/>
    <polygon id="_87" class="fil80" points="12078.44,4797.27 12107.72,4797.27 12107.72,17265.59 12078.44,17265.59 "/>
    <polygon id="_88" class="fil81" points="12097.96,4797.27 12127.24,4797.27 12127.24,17265.59 12097.96,17265.59 "/>
    <polygon id="_89" class="fil82" points="12117.48,4797.27 12146.77,4797.27 12146.77,17265.59 12117.48,17265.59 "/>
    <polygon id="_90" class="fil83" points="12137,4797.27 12166.29,4797.27 12166.29,17265.59 12137,17265.59 "/>
    <polygon id="_91" class="fil84" points="12156.53,4797.27 12185.81,4797.27 12185.81,17265.59 12156.53,17265.59 "/>
    <polygon id="_92" class="fil85" points="12176.05,4797.27 12205.33,4797.27 12205.33,17265.59 12176.05,17265.59 "/>
    <polygon id="_93" class="fil85" points="12195.57,4797.27 12224.86,4797.27 12224.86,17265.59 12195.57,17265.59 "/>
    <polygon id="_94" class="fil85" points="12215.09,4797.27 12244.38,4797.27 12244.38,17265.59 12215.09,17265.59 "/>
    <polygon id="_95" class="fil85" points="12234.62,4797.27 12263.9,4797.27 12263.9,17265.59 12234.62,17265.59 "/>
    <polygon id="_96" class="fil85" points="12254.14,4797.27 12283.42,4797.27 12283.42,17265.59 12254.14,17265.59 "/>
    <polygon id="_97" class="fil85" points="12273.66,4797.27 12302.95,4797.27 12302.95,17265.59 12273.66,17265.59 "/>
    <polygon id="_98" class="fil85" points="12293.18,4797.27 12322.47,4797.27 12322.47,17265.59 12293.18,17265.59 "/>
    <polygon id="_99" class="fil85" points="12312.71,4797.27 12341.99,4797.27 12341.99,17265.59 12312.71,17265.59 "/>
    <polygon id="_100" class="fil85" points="12332.23,4797.27 12361.51,4797.27 12361.51,17265.59 12332.23,17265.59 "/>
    <polygon id="_101" class="fil85" points="12351.75,4797.27 12381.04,4797.27 12381.04,17265.59 12351.75,17265.59 "/>
    <polygon id="_102" class="fil85" points="12371.27,4797.27 12400.56,4797.27 12400.56,17265.59 12371.27,17265.59 "/>
    <polygon id="_103" class="fil85" points="12390.8,4797.27 12420.08,4797.27 12420.08,17265.59 12390.8,17265.59 "/>
    <polygon id="_104" class="fil85" points="12410.32,4797.27 12439.6,4797.27 12439.6,17265.59 12410.32,17265.59 "/>
    <polygon id="_105" class="fil85" points="12429.84,4797.27 12459.13,4797.27 12459.13,17265.59 12429.84,17265.59 "/>
    <polygon id="_106" class="fil85" points="12449.36,4797.27 12478.65,4797.27 12478.65,17265.59 12449.36,17265.59 "/>
    <polygon id="_107" class="fil85" points="12468.89,4797.27 12498.17,4797.27 12498.17,17265.59 12468.89,17265.59 "/>
    <polygon id="_108" class="fil85" points="12488.41,4797.27 12517.69,4797.27 12517.69,17265.59 12488.41,17265.59 "/>
    <polygon id="_109" class="fil85" points="12507.93,4797.27 12537.22,4797.27 12537.22,17265.59 12507.93,17265.59 "/>
    <polygon id="_110" class="fil85" points="12527.45,4797.27 12556.74,4797.27 12556.74,17265.59 12527.45,17265.59 "/>
    <polygon id="_111" class="fil85" points="12546.98,4797.27 12576.26,4797.27 12576.26,17265.59 12546.98,17265.59 "/>
    <polygon id="_112" class="fil85" points="12566.5,4797.27 12595.78,4797.27 12595.78,17265.59 12566.5,17265.59 "/>
    <polygon id="_113" class="fil85" points="12586.02,4797.27 12615.31,4797.27 12615.31,17265.59 12586.02,17265.59 "/>
    <polygon id="_114" class="fil85" points="12605.54,4797.27 12634.83,4797.27 12634.83,17265.59 12605.54,17265.59 "/>
    <polygon id="_115" class="fil85" points="12625.07,4797.27 12654.35,4797.27 12654.35,17265.59 12625.07,17265.59 "/>
    <polygon id="_116" class="fil85" points="12644.59,4797.27 12673.87,4797.27 12673.87,17265.59 12644.59,17265.59 "/>
    <polygon id="_117" class="fil85" points="12664.11,4797.27 12693.4,4797.27 12693.4,17265.59 12664.11,17265.59 "/>
    <polygon id="_118" class="fil85" points="12683.63,4797.27 12712.92,4797.27 12712.92,17265.59 12683.63,17265.59 "/>
    <polygon id="_119" class="fil85" points="12703.16,4797.27 12732.44,4797.27 12732.44,17265.59 12703.16,17265.59 "/>
    <polygon id="_120" class="fil85" points="12722.68,4797.27 12751.96,4797.27 12751.96,17265.59 12722.68,17265.59 "/>
    <polygon id="_121" class="fil85" points="12742.2,4797.27 12771.49,4797.27 12771.49,17265.59 12742.2,17265.59 "/>
    <polygon id="_122" class="fil85" points="12761.72,4797.27 12791.01,4797.27 12791.01,17265.59 12761.72,17265.59 "/>
    <polygon id="_123" class="fil85" points="12781.25,4797.27 12810.53,4797.27 12810.53,17265.59 12781.25,17265.59 "/>
    <polygon id="_124" class="fil85" points="12800.77,4797.27 12830.05,4797.27 12830.05,17265.59 12800.77,17265.59 "/>
    <polygon id="_125" class="fil85" points="12820.29,4797.27 12849.58,4797.27 12849.58,17265.59 12820.29,17265.59 "/>
    <polygon id="_126" class="fil85" points="12839.81,4797.27 12869.1,4797.27 12869.1,17265.59 12839.81,17265.59 "/>
    <polygon id="_127" class="fil85" points="12859.34,4797.27 12888.62,4797.27 12888.62,17265.59 12859.34,17265.59 "/>
    <polygon id="_128" class="fil85" points="12878.86,4797.27 12908.14,4797.27 12908.14,17265.59 12878.86,17265.59 "/>
    <polygon id="_129" class="fil85" points="12898.38,4797.27 12927.67,4797.27 12927.67,17265.59 12898.38,17265.59 "/>
    <polygon id="_130" class="fil85" points="12917.9,4797.27 12947.19,4797.27 12947.19,17265.59 12917.9,17265.59 "/>
    <polygon id="_131" class="fil85" points="12937.43,4797.27 12966.71,4797.27 12966.71,17265.59 12937.43,17265.59 "/>
    <polygon id="_132" class="fil85" points="12956.95,4797.27 12986.23,4797.27 12986.23,17265.59 12956.95,17265.59 "/>
    <polygon id="_133" class="fil85" points="12976.47,4797.27 13005.76,4797.27 13005.76,17265.59 12976.47,17265.59 "/>
    <polygon id="_134" class="fil85" points="12995.99,4797.27 13025.28,4797.27 13025.28,17265.59 12995.99,17265.59 "/>
    <polygon id="_135" class="fil85" points="13015.52,4797.27 13044.8,4797.27 13044.8,17265.59 13015.52,17265.59 "/>
    <polygon id="_136" class="fil85" points="13035.04,4797.27 13064.32,4797.27 13064.32,17265.59 13035.04,17265.59 "/>
    <polygon id="_137" class="fil85" points="13054.56,4797.27 13083.85,4797.27 13083.85,17265.59 13054.56,17265.59 "/>
    <polygon id="_138" class="fil85" points="13074.08,4797.27 13103.37,4797.27 13103.37,17265.59 13074.08,17265.59 "/>
    <polygon id="_139" class="fil85" points="13093.61,4797.27 13122.89,4797.27 13122.89,17265.59 13093.61,17265.59 "/>
    <polygon id="_140" class="fil85" points="13113.13,4797.27 13142.41,4797.27 13142.41,17265.59 13113.13,17265.59 "/>
    <polygon id="_141" class="fil85" points="13132.65,4797.27 13161.94,4797.27 13161.94,17265.59 13132.65,17265.59 "/>
    <polygon id="_142" class="fil85" points="13152.17,4797.27 13181.46,4797.27 13181.46,17265.59 13152.17,17265.59 "/>
    <polygon id="_143" class="fil85" points="13171.7,4797.27 13200.98,4797.27 13200.98,17265.59 13171.7,17265.59 "/>
    <polygon id="_144" class="fil85" points="13191.22,4797.27 13220.5,4797.27 13220.5,17265.59 13191.22,17265.59 "/>
    <polygon id="_145" class="fil85" points="13210.74,4797.27 13240.03,4797.27 13240.03,17265.59 13210.74,17265.59 "/>
    <polygon id="_146" class="fil85" points="13230.26,4797.27 13259.55,4797.27 13259.55,17265.59 13230.26,17265.59 "/>
    <polygon id="_147" class="fil85" points="13249.79,4797.27 13279.07,4797.27 13279.07,17265.59 13249.79,17265.59 "/>
    <polygon id="_148" class="fil85" points="13269.31,4797.27 13298.59,4797.27 13298.59,17265.59 13269.31,17265.59 "/>
    <polygon id="_149" class="fil85" points="13288.83,4797.27 13318.12,4797.27 13318.12,17265.59 13288.83,17265.59 "/>
    <polygon id="_150" class="fil85" points="13308.35,4797.27 13337.64,4797.27 13337.64,17265.59 13308.35,17265.59 "/>
    <polygon id="_151" class="fil85" points="13327.88,4797.27 13357.16,4797.27 13357.16,17265.59 13327.88,17265.59 "/>
    <polygon id="_152" class="fil85" points="13347.4,4797.27 13376.68,4797.27 13376.68,17265.59 13347.4,17265.59 "/>
    <polygon id="_153" class="fil85" points="13366.92,4797.27 13396.21,4797.27 13396.21,17265.59 13366.92,17265.59 "/>
    <polygon id="_154" class="fil85" points="13386.44,4797.27 13415.73,4797.27 13415.73,17265.59 13386.44,17265.59 "/>
    <polygon id="_155" class="fil85" points="13405.97,4797.27 13435.25,4797.27 13435.25,17265.59 13405.97,17265.59 "/>
    <polygon id="_156" class="fil85" points="13425.49,4797.27 13454.77,4797.27 13454.77,17265.59 13425.49,17265.59 "/>
    <polygon id="_157" class="fil85" points="13445.01,4797.27 13474.3,4797.27 13474.3,17265.59 13445.01,17265.59 "/>
    <polygon id="_158" class="fil85" points="13464.53,4797.27 13493.82,4797.27 13493.82,17265.59 13464.53,17265.59 "/>
    <polygon id="_159" class="fil85" points="13484.06,4797.27 13513.34,4797.27 13513.34,17265.59 13484.06,17265.59 "/>
    <polygon id="_160" class="fil85" points="13503.58,4797.27 13532.86,4797.27 13532.86,17265.59 13503.58,17265.59 "/>
    <polygon id="_161" class="fil85" points="13523.1,4797.27 13552.39,4797.27 13552.39,17265.59 13523.1,17265.59 "/>
    <polygon id="_162" class="fil85" points="13542.62,4797.27 13571.91,4797.27 13571.91,17265.59 13542.62,17265.59 "/>
    <polygon id="_163" class="fil85" points="13562.15,4797.27 13591.43,4797.27 13591.43,17265.59 13562.15,17265.59 "/>
    <polygon id="_164" class="fil85" points="13581.67,4797.27 13610.95,4797.27 13610.95,17265.59 13581.67,17265.59 "/>
    <polygon id="_165" class="fil85" points="13601.19,4797.27 13630.48,4797.27 13630.48,17265.59 13601.19,17265.59 "/>
    <polygon id="_166" class="fil85" points="13620.71,4797.27 13650,4797.27 13650,17265.59 13620.71,17265.59 "/>
    <polygon id="_167" class="fil85" points="13640.24,4797.27 13669.52,4797.27 13669.52,17265.59 13640.24,17265.59 "/>
    <polygon id="_168" class="fil85" points="13659.76,4797.27 13689.04,4797.27 13689.04,17265.59 13659.76,17265.59 "/>
    <polygon id="_169" class="fil85" points="13679.28,4797.27 13708.57,4797.27 13708.57,17265.59 13679.28,17265.59 "/>
    <polygon id="_170" class="fil85" points="13698.8,4797.27 13728.09,4797.27 13728.09,17265.59 13698.8,17265.59 "/>
    <polygon id="_171" class="fil85" points="13718.33,4797.27 13747.61,4797.27 13747.61,17265.59 13718.33,17265.59 "/>
    <polygon id="_172" class="fil85" points="13737.85,4797.27 13767.13,4797.27 13767.13,17265.59 13737.85,17265.59 "/>
    <polygon id="_173" class="fil85" points="13757.37,4797.27 13786.66,4797.27 13786.66,17265.59 13757.37,17265.59 "/>
    <polygon id="_174" class="fil85" points="13776.89,4797.27 13806.18,4797.27 13806.18,17265.59 13776.89,17265.59 "/>
    <polygon id="_175" class="fil85" points="13796.42,4797.27 13825.7,4797.27 13825.7,17265.59 13796.42,17265.59 "/>
    <polygon id="_176" class="fil85" points="13815.94,4797.27 13845.22,4797.27 13845.22,17265.59 13815.94,17265.59 "/>
    <polygon id="_177" class="fil85" points="13835.46,4797.27 13864.75,4797.27 13864.75,17265.59 13835.46,17265.59 "/>
    <polygon id="_178" class="fil85" points="13854.98,4797.27 13884.27,4797.27 13884.27,17265.59 13854.98,17265.59 "/>
    <polygon id="_179" class="fil85" points="13874.51,4797.27 13903.79,4797.27 13903.79,17265.59 13874.51,17265.59 "/>
    <polygon id="_180" class="fil86" points="13894.03,4797.27 13923.31,4797.27 13923.31,17265.59 13894.03,17265.59 "/>
    <polygon id="_181" class="fil87" points="13913.55,4797.27 13942.84,4797.27 13942.84,17265.59 13913.55,17265.59 "/>
    <polygon id="_182" class="fil82" points="13933.07,4797.27 13962.36,4797.27 13962.36,17265.59 13933.07,17265.59 "/>
    <polygon id="_183" class="fil82" points="13952.6,4797.27 13981.88,4797.27 13981.88,17265.59 13952.6,17265.59 "/>
    <polygon id="_184" class="fil81" points="13972.12,4797.27 14001.4,4797.27 14001.4,17265.59 13972.12,17265.59 "/>
    <polygon id="_185" class="fil80" points="13991.64,4797.27 14020.93,4797.27 14020.93,17265.59 13991.64,17265.59 "/>
    <polygon id="_186" class="fil88" points="14011.16,4797.27 14040.45,4797.27 14040.45,17265.59 14011.16,17265.59 "/>
    <polygon id="_187" class="fil89" points="14030.69,4797.27 14059.97,4797.27 14059.97,17265.59 14030.69,17265.59 "/>
    <polygon id="_188" class="fil90" points="14050.21,4797.27 14079.49,4797.27 14079.49,17265.59 14050.21,17265.59 "/>
    <polygon id="_189" class="fil91" points="14069.73,4797.27 14099.02,4797.27 14099.02,17265.59 14069.73,17265.59 "/>
    <polygon id="_190" class="fil92" points="14089.25,4797.27 14118.54,4797.27 14118.54,17265.59 14089.25,17265.59 "/>
    <polygon id="_191" class="fil93" points="14108.78,4797.27 14138.06,4797.27 14138.06,17265.59 14108.78,17265.59 "/>
    <polygon id="_192" class="fil94" points="14128.3,4797.27 14157.58,4797.27 14157.58,17265.59 14128.3,17265.59 "/>
    <polygon id="_193" class="fil95" points="14147.82,4797.27 14177.11,4797.27 14177.11,17265.59 14147.82,17265.59 "/>
    <polygon id="_194" class="fil96" points="14167.35,4797.27 14196.63,4797.27 14196.63,17265.59 14167.35,17265.59 "/>
    <polygon id="_195" class="fil72" points="14186.87,4797.27 14216.15,4797.27 14216.15,17265.59 14186.87,17265.59 "/>
    <polygon id="_196" class="fil97" points="14206.39,4797.27 14235.67,4797.27 14235.67,17265.59 14206.39,17265.59 "/>
    <polygon id="_197" class="fil98" points="14225.91,4797.27 14255.2,4797.27 14255.2,17265.59 14225.91,17265.59 "/>
    <polygon id="_198" class="fil99" points="14245.44,4797.27 14274.72,4797.27 14274.72,17265.59 14245.44,17265.59 "/>
    <polygon id="_199" class="fil100" points="14264.96,4797.27 14294.24,4797.27 14294.24,17265.59 14264.96,17265.59 "/>
    <polygon id="_200" class="fil101" points="14284.48,4797.27 14313.76,4797.27 14313.76,17265.59 14284.48,17265.59 "/>
    <polygon id="_201" class="fil102" points="14304,4797.27 14333.29,4797.27 14333.29,17265.59 14304,17265.59 "/>
    <polygon id="_202" class="fil103" points="14323.53,4797.27 14352.81,4797.27 14352.81,17265.59 14323.53,17265.59 "/>
    <polygon id="_203" class="fil104" points="14343.05,4797.27 14372.33,4797.27 14372.33,17265.59 14343.05,17265.59 "/>
    <polygon id="_204" class="fil105" points="14362.57,4797.27 14391.85,4797.27 14391.85,17265.59 14362.57,17265.59 "/>
    <polygon id="_205" class="fil106" points="14382.09,4797.27 14411.38,4797.27 14411.38,17265.59 14382.09,17265.59 "/>
    <polygon id="_206" class="fil107" points="14401.62,4797.27 14430.9,4797.27 14430.9,17265.59 14401.62,17265.59 "/>
    <polygon id="_207" class="fil108" points="14421.14,4797.27 14450.42,4797.27 14450.42,17265.59 14421.14,17265.59 "/>
    <polygon id="_208" class="fil109" points="14440.66,4797.27 14469.94,4797.27 14469.94,17265.59 14440.66,17265.59 "/>
    <polygon id="_209" class="fil110" points="14460.18,4797.27 14489.47,4797.27 14489.47,17265.59 14460.18,17265.59 "/>
    <polygon id="_210" class="fil111" points="14479.71,4797.27 14508.99,4797.27 14508.99,17265.59 14479.71,17265.59 "/>
    <polygon id="_211" class="fil112" points="14499.23,4797.27 14528.51,4797.27 14528.51,17265.59 14499.23,17265.59 "/>
    <polygon id="_212" class="fil113" points="14518.75,4797.27 14548.03,4797.27 14548.03,17265.59 14518.75,17265.59 "/>
    <polygon id="_213" class="fil114" points="14538.27,4797.27 14567.56,4797.27 14567.56,17265.59 14538.27,17265.59 "/>
    <polygon id="_214" class="fil115" points="14557.8,4797.27 14587.08,4797.27 14587.08,17265.59 14557.8,17265.59 "/>
    <polygon id="_215" class="fil116" points="14577.32,4797.27 14606.6,4797.27 14606.6,17265.59 14577.32,17265.59 "/>
    <polygon id="_216" class="fil117" points="14596.84,4797.27 14626.12,4797.27 14626.12,17265.59 14596.84,17265.59 "/>
    <polygon id="_217" class="fil118" points="14616.36,4797.27 14645.65,4797.27 14645.65,17265.59 14616.36,17265.59 "/>
    <polygon id="_218" class="fil119" points="14635.89,4797.27 14665.17,4797.27 14665.17,17265.59 14635.89,17265.59 "/>
    <polygon id="_219" class="fil120" points="14655.41,4797.27 14684.69,4797.27 14684.69,17265.59 14655.41,17265.59 "/>
    <polygon id="_220" class="fil121" points="14674.93,4797.27 14704.21,4797.27 14704.21,17265.59 14674.93,17265.59 "/>
    <polygon id="_221" class="fil122" points="14694.45,4797.27 14723.74,4797.27 14723.74,17265.59 14694.45,17265.59 "/>
    <polygon id="_222" class="fil123" points="14713.98,4797.27 14743.26,4797.27 14743.26,17265.59 14713.98,17265.59 "/>
    <polygon id="_223" class="fil124" points="14733.5,4797.27 14762.78,4797.27 14762.78,17265.59 14733.5,17265.59 "/>
    <polygon id="_224" class="fil125" points="14753.02,4797.27 14782.3,4797.27 14782.3,17265.59 14753.02,17265.59 "/>
    <polygon id="_225" class="fil126" points="14772.54,4797.27 14801.83,4797.27 14801.83,17265.59 14772.54,17265.59 "/>
    <polygon id="_226" class="fil127" points="14792.07,4797.27 14821.35,4797.27 14821.35,17265.59 14792.07,17265.59 "/>
    <polygon id="_227" class="fil128" points="14811.59,4797.27 14840.87,4797.27 14840.87,17265.59 14811.59,17265.59 "/>
    <polygon id="_228" class="fil129" points="14831.11,4797.27 14860.39,4797.27 14860.39,17265.59 14831.11,17265.59 "/>
    <polygon id="_229" class="fil130" points="14850.63,4797.27 14879.92,4797.27 14879.92,17265.59 14850.63,17265.59 "/>
    <polygon id="_230" class="fil131" points="14870.16,4797.27 14899.44,4797.27 14899.44,17265.59 14870.16,17265.59 "/>
    <polygon id="_231" class="fil132" points="14889.68,4797.27 14918.96,4797.27 14918.96,17265.59 14889.68,17265.59 "/>
    <polygon id="_232" class="fil133" points="14909.2,4797.27 14938.48,4797.27 14938.48,17265.59 14909.2,17265.59 "/>
    <polygon id="_233" class="fil134" points="14928.72,4797.27 14958.01,4797.27 14958.01,17265.59 14928.72,17265.59 "/>
    <polygon id="_234" class="fil135" points="14948.25,4797.27 14977.53,4797.27 14977.53,17265.59 14948.25,17265.59 "/>
    <polygon id="_235" class="fil136" points="14967.77,4797.27 14997.05,4797.27 14997.05,17265.59 14967.77,17265.59 "/>
    <polygon id="_236" class="fil137" points="14987.29,4797.27 15016.57,4797.27 15016.57,17265.59 14987.29,17265.59 "/>
    <polygon id="_237" class="fil138" points="15006.81,4797.27 15036.1,4797.27 15036.1,17265.59 15006.81,17265.59 "/>
    <polygon id="_238" class="fil139" points="15026.34,4797.27 15055.62,4797.27 15055.62,17265.59 15026.34,17265.59 "/>
    <polygon id="_239" class="fil140" points="15045.86,4797.27 15075.14,4797.27 15075.14,17265.59 15045.86,17265.59 "/>
    <polygon id="_240" class="fil141" points="15065.38,4797.27 15094.66,4797.27 15094.66,17265.59 15065.38,17265.59 "/>
    <polygon id="_241" class="fil142" points="15084.9,4797.27 15114.19,4797.27 15114.19,17265.59 15084.9,17265.59 "/>
    <polygon id="_242" class="fil143" points="15104.43,4797.27 15133.71,4797.27 15133.71,17265.59 15104.43,17265.59 "/>
    <polygon id="_243" class="fil144" points="15123.95,4797.27 15153.23,4797.27 15153.23,17265.59 15123.95,17265.59 "/>
    <polygon id="_244" class="fil145" points="15143.47,4797.27 15172.75,4797.27 15172.75,17265.59 15143.47,17265.59 "/>
    <polygon id="_245" class="fil146" points="15162.99,4797.27 15192.28,4797.27 15192.28,17265.59 15162.99,17265.59 "/>
    <polygon id="_246" class="fil147" points="15182.52,4797.27 15211.8,4797.27 15211.8,17265.59 15182.52,17265.59 "/>
    <polygon id="_247" class="fil148" points="15202.04,4797.27 15231.32,4797.27 15231.32,17265.59 15202.04,17265.59 "/>
    <polygon id="_248" class="fil149" points="15221.56,4797.27 15250.84,4797.27 15250.84,17265.59 15221.56,17265.59 "/>
    <polygon id="_249" class="fil150" points="15241.08,4797.27 15270.37,4797.27 15270.37,17265.59 15241.08,17265.59 "/>
    <polygon id="_250" class="fil151" points="15260.61,4797.27 15289.89,4797.27 15289.89,17265.59 15260.61,17265.59 "/>
    <polygon id="_251" class="fil152" points="15280.13,4797.27 15309.41,4797.27 15309.41,17265.59 15280.13,17265.59 "/>
    <polygon id="_252" class="fil153" points="15299.65,4797.27 15328.93,4797.27 15328.93,17265.59 15299.65,17265.59 "/>
    <polygon id="_253" class="fil153" points="15319.17,4797.27 15348.46,4797.27 15348.46,17265.59 15319.17,17265.59 "/>
    <polygon id="_254" class="fil153" points="15338.7,4797.27 15367.98,4797.27 15367.98,17265.59 15338.7,17265.59 "/>
    <polygon id="_255" class="fil153" points="15358.22,4797.27 16152.43,4797.27 16152.43,17265.59 15358.22,17265.59 "/>
   </g>
  </g>
 </g>
</svg>
